<?xml version="1.0" encoding="utf-8"?>
<!-- Generator: Adobe Illustrator 25.0.1, SVG Export Plug-In . SVG Version: 6.00 Build 0)  -->
<svg version="1.1" id="Layer_1" xmlns="http://www.w3.org/2000/svg" xmlns:xlink="http://www.w3.org/1999/xlink" x="0px" y="0px"
	 viewBox="0 0 46 46" style="enable-background:new 0 0 46 46;" xml:space="preserve">
<style type="text/css">
	.st0{fill:none;stroke:#A4B1CD;stroke-width:2;}
	.st1{enable-background:new    ;}
	.st2{fill:#9FEF00;}
</style>
<desc>Created with Sketch.</desc>
<g id="Page-1">
	<g id="badge-noob" transform="translate(1.000000, 1.000000)">
		<path id="Rectangle" class="st0" d="M5,0h34c2.8,0,5,2.2,5,5v34c0,2.8-2.2,5-5,5H5c-2.8,0-5-2.2-5-5V5C0,2.2,2.2,0,5,0z"/>
		<g class="st1">
			<path class="st2" d="M13.3,7.3v1.3H9.5V11h3v1.2h-3v2.5h3.8V16H7.9V7.3H13.3z"/>
			<path class="st2" d="M19.4,8.9c0,0.1-0.1,0.1-0.2,0.2S19.1,9.1,19,9.1s-0.2,0-0.3-0.1c-0.1-0.1-0.2-0.1-0.4-0.2
				c-0.1-0.1-0.3-0.1-0.5-0.2c-0.2-0.1-0.4-0.1-0.6-0.1c-0.2,0-0.4,0-0.6,0.1s-0.3,0.1-0.4,0.2c-0.1,0.1-0.2,0.2-0.3,0.3
				c-0.1,0.1-0.1,0.3-0.1,0.4c0,0.2,0.1,0.4,0.2,0.5c0.1,0.1,0.3,0.3,0.5,0.3c0.2,0.1,0.4,0.2,0.6,0.3c0.2,0.1,0.5,0.2,0.7,0.2
				s0.5,0.2,0.7,0.3c0.2,0.1,0.5,0.3,0.6,0.4c0.2,0.2,0.3,0.4,0.5,0.6c0.1,0.3,0.2,0.6,0.2,0.9c0,0.4-0.1,0.8-0.2,1.1
				s-0.3,0.6-0.6,0.9c-0.3,0.3-0.6,0.5-0.9,0.6c-0.4,0.1-0.8,0.2-1.3,0.2c-0.3,0-0.5,0-0.8-0.1c-0.3-0.1-0.5-0.1-0.8-0.2
				c-0.2-0.1-0.5-0.2-0.7-0.4c-0.2-0.1-0.4-0.3-0.6-0.5l0.5-0.8c0-0.1,0.1-0.1,0.2-0.1s0.1-0.1,0.2-0.1c0.1,0,0.2,0,0.3,0.1
				c0.1,0.1,0.3,0.2,0.4,0.3c0.2,0.1,0.3,0.2,0.6,0.3c0.2,0.1,0.5,0.1,0.8,0.1c0.5,0,0.8-0.1,1.1-0.3s0.4-0.5,0.4-0.9
				c0-0.2-0.1-0.4-0.2-0.6c-0.1-0.1-0.3-0.3-0.5-0.4c-0.2-0.1-0.4-0.2-0.6-0.2c-0.2-0.1-0.5-0.1-0.7-0.2s-0.5-0.2-0.7-0.3
				c-0.2-0.1-0.5-0.3-0.6-0.4c-0.2-0.2-0.3-0.4-0.5-0.7c-0.1-0.3-0.2-0.6-0.2-1c0-0.3,0.1-0.6,0.2-0.9s0.3-0.6,0.6-0.8
				c0.2-0.2,0.5-0.4,0.9-0.6c0.4-0.1,0.8-0.2,1.2-0.2c0.5,0,1,0.1,1.4,0.2c0.4,0.2,0.8,0.4,1.1,0.7L19.4,8.9z"/>
			<path class="st2" d="M27.1,14c0.1,0,0.2,0,0.2,0.1l0.6,0.7c-0.4,0.4-0.8,0.8-1.3,1s-1.1,0.3-1.9,0.3c-0.6,0-1.2-0.1-1.7-0.3
				c-0.5-0.2-1-0.5-1.3-0.9c-0.4-0.4-0.6-0.9-0.8-1.4c-0.2-0.5-0.3-1.1-0.3-1.8c0-0.7,0.1-1.2,0.3-1.8c0.2-0.5,0.5-1,0.9-1.4
				c0.4-0.4,0.9-0.7,1.4-0.9c0.5-0.2,1.1-0.3,1.8-0.3c0.6,0,1.2,0.1,1.7,0.3c0.5,0.2,0.9,0.5,1.2,0.8l-0.5,0.8c0,0-0.1,0.1-0.1,0.1
				c0,0-0.1,0.1-0.2,0.1c-0.1,0-0.2,0-0.3-0.1c-0.1-0.1-0.2-0.1-0.4-0.2S26.2,8.8,26,8.7c-0.2-0.1-0.5-0.1-0.9-0.1
				c-0.4,0-0.8,0.1-1.1,0.2c-0.3,0.1-0.6,0.3-0.9,0.6c-0.2,0.3-0.4,0.6-0.6,1s-0.2,0.8-0.2,1.3c0,0.5,0.1,0.9,0.2,1.3s0.3,0.7,0.6,1
				c0.2,0.3,0.5,0.5,0.8,0.6c0.3,0.1,0.7,0.2,1,0.2c0.2,0,0.4,0,0.6,0c0.2,0,0.3-0.1,0.5-0.1c0.2-0.1,0.3-0.1,0.4-0.2
				c0.1-0.1,0.3-0.2,0.4-0.3c0,0,0.1-0.1,0.1-0.1C27,14,27.1,14,27.1,14z"/>
		</g>
	</g>
</g>
</svg>
